PathFileType	4	(X/Y/Z)	RBDS011\RBDS011runT25.trc
DataRate	CameraRate	NumFrames	NumMarkers	Units	OrigDataRate	OrigDataStartFrame	OrigNumFrames
150.000000	150.000000	4	33	mm	150.000000	2250	4500
Frame#	Time	L.ASIS			L.Heel.Bottom			L.Heel.Lateral			L.Heel.Top			L.Iliac.Crest			L.MT1			L.MT5			L.PSIS			L.Shank.Bottom.Lateral			L.Shank.Bottom.Medial			L.Shank.Top.Lateral			L.Shank.Top.Medial			L.Thigh.Bottom.Lateral			L.Thigh.Bottom.Medial			L.Thigh.Top.Lateral			L.Thigh.Top.Medial			R.ASIS			R.ASY			R.Heel.Bottom			R.Heel.Lateral			R.Heel.Top			R.Iliac.Crest			R.MT1			R.MT5			R.PSIS			R.Shank.Bottom.Lateral			R.Shank.Bottom.Medial			R.Shank.Top.Lateral			R.Shank.Top.Medial			R.Thigh.Bottom.Lateral			R.Thigh.Bottom.Medial			R.Thigh.Top.Lateral			R.Thigh.Top.Medial			
		X1	Y1	Z1	X2	Y2	Z2	X3	Y3	Z3	X4	Y4	Z4	X5	Y5	Z5	X6	Y6	Z6	X7	Y7	Z7	X8	Y8	Z8	X9	Y9	Z9	X10	Y10	Z10	X11	Y11	Z11	X12	Y12	Z12	X13	Y13	Z13	X14	Y14	Z14	X15	Y15	Z15	X16	Y16	Z16	X17	Y17	Z17	X18	Y18	Z18	X19	Y19	Z19	X20	Y20	Z20	X21	Y21	Z21	X22	Y22	Z22	X23	Y23	Z23	X24	Y24	Z24	X25	Y25	Z25	X26	Y26	Z26	X27	Y27	Z27	X28	Y28	Z28	X29	Y29	Z29	X30	Y30	Z30	X31	Y31	Z31	X32	Y32	Z32	X33	Y33	Z33	

2251	15	2279.880251738046	958.5816393669598	927.6628875881012	2134.123831856591	36.48956438403241	1029.512691444942	2158.340939472975	49.95483452729039	989.7806874175222	2148.096155982835	84.35323876176349	1032.036151019168	2213.474892339533	1016.009432973567	898.3939481864719	2363.288477039408	40.72079448402572	1066.62245944704	2329.822588566149	40.56223979229661	951.9853963354616	2116.657990255867	983.0024186577638	1015.870628752522	2239.675446724548	166.7844844141677	967.1905603916754	2202.052254756909	187.432949351988	1002.515252653131	2258.705938160762	242.2650823637941	945.3122435890449	2224.825087970803	262.6647577830666	982.3135131861876	2323.409172380381	588.27197402106	896.469496615002	2271.162725991283	563.1728838698455	939.7885175152169	2265.015929206771	680.989204534796	881.5887191290778	2216.018567002117	657.8237911601282	922.5842529403023	2295.251746330979	937.6848873274801	1176.27704507568	1829.732212254456	270.5304845187362	1134.345540281149	1747.099715822918	440.7810204629918	1107.433212971169	1765.743921222456	422.0060359148957	1151.603318543825	1797.91601335971	436.8294393895707	1110.796013541678	2253.499495136135	991.4486713771464	1214.092509481219	1785.983148338199	217.9909011188461	1084.563390404617	1767.164473679884	251.0186593869722	1196.660219419292	2124.11747083449	978.4618269804184	1116.751984475553	1880.303581935024	405.1059409642785	1171.513876078314	1883.966593753442	435.0938609953374	1130.125501742576	1960.948843255204	422.7111710660157	1189.816610103888	1960.304866272436	455.0665552626835	1147.62314770853	2212.462693935212	548.7119190524693	1220.113874154045	2161.316893561525	548.8840553435477	1165.701468041507	2196.270040532093	656.3745926656717	1231.577286440921	2147.437515635345	657.2627099042492	1182.65239964706	
2252	15.00666666666667	2278.230540498117	955.3997861907869	926.7901578135755	2117.665398229827	36.9941334793832	1029.465125735187	2141.906387738291	50.48299790138491	989.7245452738753	2131.731012074565	84.8246577782753	1032.033489090263	2210.858490289349	1010.934958703533	897.8292518512222	2346.708190442349	41.11778252295087	1066.310429694699	2313.155854130523	40.82018451166564	951.7524694131642	2115.181590854771	979.6752525065043	1016.294932449474	2226.178498067191	166.6508633336772	967.0003525795807	2188.945235576574	188.4620195274355	1002.098690257065	2247.600325030523	241.3824816414763	945.0554692194887	2214.040471029331	262.9439601853679	981.7362983236189	2319.229559028051	584.477391189869	896.0316373106257	2266.71777334848	559.9394432970242	939.3523396945287	2261.660863822057	677.7585786320996	881.1517996577871	2212.666839783695	655.1792484806409	922.4408842862229	2294.259499523767	933.7157221172505	1175.564951952251	1841.488936935102	270.1966705079109	1134.450100768132	1757.917242204303	439.9022432124497	1106.944258801831	1776.77485569784	421.4229969906862	1151.109445563284	1808.776211149978	436.1557228131917	1110.176179807215	2251.455042935106	985.6627832640157	1213.94036045068	1797.882017530841	217.1176304876115	1085.138392564096	1779.267261348978	250.7289126448982	1197.096371371126	2122.745843253864	974.7352431467621	1116.561095402612	1891.699263952195	404.2839814023006	1171.41058760263	1895.741541861763	434.3449142026983	1130.106045104129	1972.395598283665	421.3032598475122	1190.079573800013	1972.177554792268	453.7290729888445	1147.911648855528	2220.719245121219	545.4286542437925	1221.493675671633	2169.239267405012	543.7783196344675	1167.638130960137	2201.726495459952	652.7283504442038	1232.293728882815	2152.564740402391	651.9045955289432	1183.764438793503	
2253	15.01333333333333	2276.600699272918	952.688621774678	926.0973039320456	2101.161676392424	37.40294879480864	1029.411368130589	2125.418782126592	50.88652494428557	989.652021466793	2115.304858643007	85.20333155023853	1031.991285820191	2208.128158714405	1006.805352353764	897.3613688280399	2330.078205977509	41.39146453183946	1065.914372670045	2296.43192569956	40.90438449550247	951.4346473917501	2113.691772793078	976.9630766178466	1016.682484505788	2212.189710989951	166.4138270055631	966.6783326437032	2175.472822776314	189.2449053942887	1001.679324276411	2235.743765232026	240.3842554567186	944.7099924853994	2202.57128985088	262.9747499810326	981.1389623692813	2314.31945631835	580.8905834556218	895.5210991459086	2261.216644913232	556.9389139296261	938.4500861259836	2257.877288433294	674.9256504461089	880.7394764994552	2208.610053323373	652.967388854453	922.0184922301842	2293.067072921719	930.3735269708395	1175.068274724331	1854.166546767126	268.9727480630338	1134.427693127582	1768.747173088129	437.726854925279	1106.698193511611	1787.956459613578	419.5395965285288	1150.810672066043	1819.668909873636	434.3947111115865	1109.773597217426	2248.925327360261	980.7648784686198	1213.928074302379	1810.952851475426	215.2198482780752	1085.534156651277	1792.449538194548	249.1245645039177	1197.415700937705	2121.301733208325	971.6799178236161	1116.365090816515	1903.382211985938	402.7174292073788	1171.352007464723	1907.62208078259	432.9445610524277	1130.182462313984	1984.071157288707	419.5105770447667	1190.339414756748	1984.073095695051	452.0833041680606	1148.258643036948	2229.389968821476	542.9087458914921	1222.905066902347	2177.555225418256	539.3338416889416	1169.744571717684	2207.48167211357	649.7458021052986	1233.087461498088	2157.915460899108	647.113093574416	1185.132840752569	
2254	15.02	2275.005806685133	950.4378539921762	925.6099681163324	2084.590567909294	37.74677764569284	1029.364631059135	2108.867217750183	51.20932935473699	989.5878323787684	2098.811353421588	85.51703259139124	1031.948750303017	2205.395245429907	1003.689960561854	896.9977888742945	2313.393207601135	41.49269362660542	1065.497572254133	2279.647178867082	40.83439927070279	951.0856732698899	2112.198633011538	974.8627358106786	1017.015570487069	2197.744193639036	166.0893660512421	966.2967451207666	2161.642477573984	189.8107357065375	1001.310759717551	2223.186247397206	239.3094742856838	944.3249745615379	2190.456787311188	262.8077633395879	980.5700653831451	2308.712623646161	577.5542943923446	894.9264973123239	2254.734642660235	554.2075617447223	937.1143330114254	2253.66709677365	672.5019444226501	880.3419306734438	2203.875603231434	651.1908007528614	921.3344635915125	2291.707458874359	927.7367782241255	1174.798891672747	1867.678355863994	266.8481588660052	1134.277537685166	1779.549175218822	434.2462256978076	1106.693932643818	1799.22890437106	416.346786092417	1150.713433981176	1830.543199387852	431.5453315653345	1109.602145748362	2245.991527185638	976.9087305945451	1214.046355177122	1825.117005657668	212.3108761832104	1085.725201129533	1806.604238586213	246.1968632582011	1197.594455149722	2119.807986757715	969.3018953127091	1116.172834111822	1915.277597491295	400.4085996498497	1171.348587469648	1919.519758189812	430.8897548090221	1130.359487019837	1995.899573818694	417.354181270589	1190.597409952757	1995.899183563833	450.1456427357912	1148.662676927399	2238.405497319639	541.2247938163774	1224.316623088371	2186.223031839832	535.6402245997795	1171.948198770363	2213.47390958337	647.4936152360257	1233.935270749404	2163.468323850091	642.959966084377	1186.697986558079	
